<svg width="27" height="27" viewBox="0 0 27 27" fill="none" xmlns="http://www.w3.org/2000/svg">
<path d="M18.227 8.2302C18.1953 8.21693 18.1605 8.20979 18.1267 8.20979H14.2877C14.1423 8.20979 14.0256 8.32614 14.0256 8.47107C14.0256 8.61599 14.1423 8.73235 14.2877 8.73235H17.4936L14.0091 12.2055C13.9067 12.3076 13.9067 12.4729 14.0091 12.575C14.0603 12.626 14.1268 12.6516 14.1944 12.6516C14.262 12.6516 14.3286 12.626 14.3798 12.575L17.8643 9.10182V12.2973C17.8643 12.4422 17.981 12.5586 18.1264 12.5586C18.2718 12.5586 18.3886 12.4422 18.3886 12.2973V8.47083C18.3886 8.43715 18.3814 8.40245 18.3681 8.37081C18.3415 8.30651 18.2913 8.2565 18.2268 8.22996L18.227 8.2302ZM12.4365 13.7743L8.95197 17.2475V14.052C8.95197 13.9071 8.83524 13.7908 8.68984 13.7908C8.54443 13.7908 8.4277 13.9071 8.4277 14.052V17.8785C8.4277 17.9122 8.43487 17.9469 8.44818 17.9785C8.4748 18.0428 8.526 18.0928 8.58949 18.1193C8.62123 18.1326 8.65605 18.1398 8.68983 18.1398H12.5288C12.6742 18.1398 12.7909 18.0234 12.7909 17.8785C12.7909 17.7336 12.6742 17.6172 12.5288 17.6172H9.32288L12.8074 14.144C12.9098 14.0419 12.9098 13.8766 12.8074 13.7745C12.705 13.6724 12.5391 13.6714 12.4367 13.7745L12.4365 13.7743ZM18.913 6.38086H7.90344C7.18053 6.38086 6.59277 6.9667 6.59277 7.68726V18.661C6.59277 19.3816 7.18053 19.9674 7.90344 19.9674H18.913C19.6359 19.9674 20.2237 19.3816 20.2237 18.661V7.68726C20.2237 6.9667 19.6359 6.38086 18.913 6.38086ZM19.6994 18.661C19.6994 19.0927 19.3461 19.4449 18.913 19.4449H7.90344C7.47032 19.4449 7.11704 19.0927 7.11704 18.661V7.68726C7.11704 7.25555 7.47032 6.90342 7.90344 6.90342H18.913C19.3461 6.90342 19.6994 7.25555 19.6994 7.68726V18.661Z" fill="black"/>
</svg>
