<svg width="23" height="23" viewBox="0 0 23 23" fill="none" xmlns="http://www.w3.org/2000/svg">
<path fill-rule="evenodd" clip-rule="evenodd" d="M11.5002 0.700195C5.53077 0.700195 0.700195 5.52861 0.700195 11.5002C0.700195 17.4696 5.53077 22.3002 11.5002 22.3002C17.4718 22.3002 22.3002 17.4696 22.3002 11.5002C22.3002 5.52753 17.4729 0.700195 11.5002 0.700195ZM7.3827 6.9102C7.40274 6.90914 7.42172 6.90914 7.44176 6.9102C7.58731 6.90914 7.72758 6.96609 7.82988 7.07051L11.5003 10.7322L15.162 7.07051C15.2601 6.97031 15.393 6.91336 15.5333 6.9102C15.7568 6.9007 15.9636 7.03149 16.0511 7.23714C16.1397 7.44386 16.0912 7.68221 15.9298 7.83832L12.2594 11.5087L15.9298 15.1704C16.0321 15.2717 16.0891 15.4099 16.0891 15.5544C16.0891 15.6978 16.0321 15.836 15.9298 15.9383C15.8286 16.0395 15.6904 16.0975 15.5459 16.0975C15.4014 16.0975 15.2643 16.0395 15.162 15.9383L11.5003 12.2679L7.82988 15.9383C7.61789 16.1503 7.27406 16.1503 7.06205 15.9383C6.85005 15.7263 6.85006 15.3824 7.06205 15.1704L10.7238 11.5087L7.06205 7.83832C6.90912 7.69172 6.85533 7.47023 6.92494 7.27089C6.9935 7.07155 7.1728 6.93023 7.38267 6.9102H7.3827Z" fill="white"/>
</svg>
