<svg width="15" height="14" viewBox="0 0 15 14" fill="none" xmlns="http://www.w3.org/2000/svg">
<path d="M12.227 2.2302C12.1953 2.21693 12.1605 2.20979 12.1267 2.20979H8.28773C8.14233 2.20979 8.0256 2.32614 8.0256 2.47107C8.0256 2.61599 8.14233 2.73235 8.28773 2.73235H11.4936L8.00908 6.20554C7.90669 6.3076 7.90669 6.47293 8.00908 6.57501C8.06028 6.62605 8.12684 6.65156 8.19442 6.65156C8.262 6.65156 8.32856 6.62605 8.37975 6.57501L11.8643 3.10182V6.29727C11.8643 6.4422 11.981 6.55855 12.1264 6.55855C12.2718 6.55855 12.3886 6.4422 12.3886 6.29727V2.47083C12.3886 2.43715 12.3814 2.40245 12.3681 2.37081C12.3415 2.30651 12.2913 2.2565 12.2268 2.22996L12.227 2.2302ZM6.4365 7.7743L2.95197 11.2475V8.05204C2.95197 7.90711 2.83524 7.79076 2.68984 7.79076C2.54443 7.79076 2.4277 7.90711 2.4277 8.05204V11.8785C2.4277 11.9122 2.43487 11.9469 2.44818 11.9785C2.4748 12.0428 2.526 12.0928 2.58949 12.1193C2.62123 12.1326 2.65605 12.1398 2.68983 12.1398H6.52877C6.67417 12.1398 6.7909 12.0234 6.7909 11.8785C6.7909 11.7336 6.67417 11.6172 6.52877 11.6172H3.32288L6.80742 8.14401C6.90981 8.04194 6.90981 7.87661 6.80742 7.77453C6.70502 7.67245 6.53915 7.67145 6.43673 7.77453L6.4365 7.7743ZM12.913 0.380859H1.90344C1.18053 0.380859 0.592773 0.966701 0.592773 1.68726V12.661C0.592773 13.3816 1.18053 13.9674 1.90344 13.9674H12.913C13.6359 13.9674 14.2237 13.3816 14.2237 12.661V1.68726C14.2237 0.966701 13.6359 0.380859 12.913 0.380859ZM13.6994 12.661C13.6994 13.0927 13.3461 13.4449 12.913 13.4449H1.90344C1.47032 13.4449 1.11704 13.0927 1.11704 12.661V1.68726C1.11704 1.25555 1.47032 0.903419 1.90344 0.903419H12.913C13.3461 0.903419 13.6994 1.25555 13.6994 1.68726V12.661Z" fill="black"/>
</svg>
