<svg width="15" height="15" viewBox="0 0 15 15" fill="none" xmlns="http://www.w3.org/2000/svg">
<path d="M12.0122 2.47434C11.9804 2.46107 11.9456 2.45393 11.9118 2.45393H8.07289C7.92748 2.45393 7.81075 2.57028 7.81075 2.71521C7.81075 2.86014 7.92748 2.97649 8.07289 2.97649H11.2788L7.79424 6.44968C7.69185 6.55174 7.69185 6.71707 7.79424 6.81916C7.84544 6.87019 7.912 6.8957 7.97958 6.8957C8.04716 6.8957 8.11371 6.87019 8.16491 6.81916L11.6494 3.34596V6.54141C11.6494 6.68634 11.7662 6.80269 11.9116 6.80269C12.057 6.80269 12.1737 6.68634 12.1737 6.54141V2.71497C12.1737 2.68129 12.1665 2.64659 12.1532 2.61495C12.1266 2.55065 12.0764 2.50064 12.0119 2.47411L12.0122 2.47434ZM6.22166 8.01844L2.73712 11.4916V8.29618C2.73712 8.15125 2.62039 8.0349 2.47499 8.0349C2.32959 8.0349 2.21286 8.15125 2.21286 8.29618V12.1226C2.21286 12.1563 2.22003 12.191 2.23334 12.2226C2.25996 12.2869 2.31116 12.337 2.37464 12.3635C2.40639 12.3768 2.4412 12.3839 2.47499 12.3839H6.31393C6.45933 12.3839 6.57606 12.2675 6.57606 12.1226C6.57606 11.9777 6.45933 11.8613 6.31393 11.8613H3.10804L6.59257 8.38815C6.69497 8.28608 6.69497 8.12075 6.59257 8.01867C6.49018 7.91659 6.32431 7.91559 6.22189 8.01867L6.22166 8.01844ZM12.6982 0.625H1.68859C0.965684 0.625 0.37793 1.21084 0.37793 1.9314V12.9052C0.37793 13.6257 0.965684 14.2116 1.68859 14.2116H12.6982C13.4211 14.2116 14.0088 13.6257 14.0088 12.9052V1.9314C14.0088 1.21084 13.4211 0.625 12.6982 0.625ZM13.4846 12.9052C13.4846 13.3369 13.1313 13.689 12.6982 13.689H1.68859C1.25547 13.689 0.902195 13.3369 0.902195 12.9052V1.9314C0.902195 1.49969 1.25547 1.14756 1.68859 1.14756H12.6982C13.1313 1.14756 13.4846 1.49969 13.4846 1.9314V12.9052Z" fill="white"/>
</svg>
