<svg width="11" height="13" viewBox="0 0 11 13" fill="none" xmlns="http://www.w3.org/2000/svg">
<path d="M1.0293 11.3109V1.26953L9.43726 6.28889L1.0293 11.3109Z" fill="white"/>
<path d="M1.8519 11.3116V10.3139V7.91984V5.02123V2.50208C1.8519 2.09819 1.8661 1.69102 1.8519 1.2844V1.26753C1.43795 1.50431 1.02127 1.74109 0.607864 1.97843C0.884746 2.14554 1.16435 2.30993 1.44122 2.47704C2.11239 2.87821 2.78357 3.27993 3.45412 3.67838C4.26236 4.16066 5.07012 4.64294 5.87833 5.12734C6.57735 5.54538 7.27637 5.96343 7.97539 6.37876C8.3167 6.58234 8.65201 6.79681 8.9988 6.98896C9.00426 6.99168 9.00972 6.9944 9.01299 6.99712V5.57311C8.73611 5.74022 8.4565 5.90461 8.17964 6.07172C7.50846 6.47289 6.83729 6.87461 6.16674 7.27306C5.3585 7.75534 4.55074 8.23763 3.74253 8.72202C3.04351 9.14007 2.34449 9.55811 1.64547 9.97344C1.30415 10.177 0.960654 10.3746 0.622063 10.5836C0.616602 10.5864 0.611141 10.5891 0.607864 10.5918C0.235957 10.815 0.0683042 11.3413 0.311326 11.7208C0.551621 12.0915 1.04693 12.2531 1.44396 12.0163C1.72084 11.8492 2.00045 11.6848 2.27732 11.5177C2.94849 11.1166 3.61966 10.7148 4.29022 10.3164C5.09846 9.83411 5.90622 9.35182 6.71442 8.86743C7.41344 8.44938 8.11247 8.03133 8.81149 7.616C9.1528 7.41243 9.4963 7.21483 9.83489 7.0058C9.84036 7.00308 9.84582 7.00036 9.84909 6.99764C10.3859 6.67702 10.3859 5.89373 9.84909 5.57363C9.57221 5.40652 9.2926 5.24213 9.01573 5.07502C8.34456 4.67385 7.67339 4.27214 7.00283 3.87368C6.1946 3.39141 5.38684 2.90912 4.57863 2.42473C3.87961 2.00668 3.18059 1.58863 2.48157 1.1733C2.14025 0.969725 1.80495 0.75797 1.45816 0.563104C1.4527 0.560382 1.44724 0.557661 1.44396 0.554939C0.904403 0.231607 0.19993 0.646932 0.19993 1.26584V2.26361V4.65763V7.55624V10.0754C0.19993 10.4793 0.191738 10.8864 0.19993 11.2931V11.3099C0.19993 11.7421 0.580029 12.1542 1.02784 12.1352C1.47183 12.1145 1.85191 11.7743 1.85191 11.3116L1.8519 11.3116Z" fill="white"/>
</svg>
