<svg width="16" height="17" viewBox="0 0 16 17" fill="none" xmlns="http://www.w3.org/2000/svg">
<g clip-path="url(#clip0)">
<path d="M9.33279 0.753137C8.93099 0.584125 8.46653 0.680876 8.16486 0.99503L5.25204 3.98836H1.85339V3.98774C1.41842 3.98713 1.00064 4.15983 0.693452 4.46662C0.385656 4.77342 0.213623 5.18984 0.21485 5.6234V11.1575C0.21485 12.0583 0.947176 12.7882 1.85087 12.7882H5.67167L8.16486 15.3527C8.36392 15.5585 8.63793 15.6748 8.92484 15.6748C9.06491 15.6748 9.20315 15.6473 9.33279 15.5946C9.7395 15.436 10.0049 15.0429 10 14.6075V1.74027C10.0049 1.30488 9.73952 0.911719 9.33279 0.753117V0.753137ZM9.51464 14.6081V14.6075C9.51464 14.8439 9.37026 15.0564 9.15093 15.1452C8.9316 15.234 8.6797 15.1813 8.51443 15.0117L5.87811 12.302H1.85097C1.21631 12.302 0.701473 11.79 0.700247 11.1574V5.62336C0.700247 4.99016 1.2157 4.47699 1.85097 4.47699H5.45865L8.5127 1.33129H8.51209C8.67736 1.16044 8.92986 1.10654 9.15042 1.19534C9.37159 1.28413 9.51536 1.49785 9.51475 1.73545L9.51464 14.6081Z" fill="black"/>
<path d="M14.0075 8.41544L15.8697 6.55931L15.8691 6.55992C15.9521 6.46378 15.9465 6.32049 15.8568 6.23107C15.7671 6.14166 15.6234 6.13615 15.5269 6.21821L13.6647 8.07434L11.8025 6.21821H11.8031C11.7067 6.13615 11.5635 6.14166 11.4738 6.23107C11.3841 6.32048 11.3786 6.46378 11.4609 6.55992L13.3231 8.41543L11.4609 10.2716C11.4093 10.315 11.3786 10.3787 11.3761 10.4461C11.3737 10.5134 11.3995 10.5784 11.4474 10.6261C11.4947 10.6739 11.5604 10.6996 11.628 10.6972C11.6956 10.6941 11.7595 10.6635 11.8031 10.6126L13.6653 8.75652L15.5275 10.6126H15.5269C15.6234 10.6947 15.7671 10.6892 15.8568 10.5998C15.9465 10.5104 15.952 10.3677 15.8691 10.2715L14.0075 8.41544Z" fill="black"/>
</g>
<defs>
<clipPath id="clip0">
<rect width="15.728" height="15.6768" fill="white" transform="translate(0.214844 0.335938)"/>
</clipPath>
</defs>
</svg>
