<svg width="11" height="12" viewBox="0 0 11 12" fill="none" xmlns="http://www.w3.org/2000/svg">
<path d="M1.0293 11.0668V1.02539L9.43726 6.04475L1.0293 11.0668Z" fill="black"/>
<path d="M1.8519 11.0675V10.0697V7.6757V4.77709V2.25794C1.8519 1.85405 1.8661 1.44688 1.8519 1.04026V1.02339C1.43795 1.26017 1.02127 1.49695 0.607864 1.73429C0.884746 1.9014 1.16435 2.06579 1.44122 2.2329C2.11239 2.63407 2.78357 3.03579 3.45412 3.43424C4.26236 3.91652 5.07012 4.3988 5.87833 4.8832C6.57735 5.30124 7.27637 5.71929 7.97539 6.13462C8.3167 6.3382 8.65201 6.55267 8.9988 6.74482C9.00426 6.74754 9.00972 6.75026 9.01299 6.75298V5.32897C8.73611 5.49608 8.4565 5.66047 8.17964 5.82758C7.50846 6.22875 6.83729 6.63047 6.16674 7.02892C5.3585 7.5112 4.55074 7.99348 3.74253 8.47788C3.04351 8.89592 2.34449 9.31397 1.64547 9.7293C1.30415 9.93288 0.960654 10.1305 0.622063 10.3395C0.616602 10.3422 0.611141 10.3449 0.607864 10.3477C0.235957 10.5708 0.0683042 11.0972 0.311326 11.4766C0.551621 11.8473 1.04693 12.009 1.44396 11.7722C1.72084 11.6051 2.00045 11.4407 2.27732 11.2736C2.94849 10.8724 3.61966 10.4707 4.29022 10.0722C5.09846 9.58996 5.90622 9.10768 6.71442 8.62329C7.41344 8.20524 8.11247 7.78719 8.81149 7.37186C9.1528 7.16828 9.4963 6.97069 9.83489 6.76166C9.84036 6.75894 9.84582 6.75622 9.84909 6.7535C10.3859 6.43288 10.3859 5.64959 9.84909 5.32949C9.57221 5.16238 9.2926 4.99799 9.01573 4.83088C8.34456 4.42971 7.67339 4.02799 7.00283 3.62954C6.1946 3.14727 5.38684 2.66498 4.57863 2.18059C3.87961 1.76254 3.18059 1.34449 2.48157 0.92916C2.14025 0.725584 1.80495 0.513829 1.45816 0.318963C1.4527 0.316242 1.44724 0.31352 1.44396 0.310798C0.904403 -0.0125337 0.19993 0.402791 0.19993 1.0217V2.01947V4.41349V7.3121V9.83125C0.19993 10.2351 0.191738 10.6423 0.19993 11.0489V11.0658C0.19993 11.498 0.580029 11.9101 1.02784 11.891C1.47183 11.8703 1.85191 11.5301 1.85191 11.0674L1.8519 11.0675Z" fill="black"/>
</svg>
